<svg width="100%" height="100%" viewBox="0 0 838 182" version="1.1" xmlns="http://www.w3.org/2000/svg" xml:space="preserve" style="fill:#ffffff;">
    <path d="M0.371,2.457C11.943,1.984 32.745,2.005 44.223,2.491C44.323,7.899 43.629,14.384 43.472,19.932C43.049,34.843 41.891,49.96 41.676,64.85C44.968,59.64 48.73,53.37 52.966,49.088C71.311,30.894 103.279,36.34 120.483,53.506C149.355,82.314 150.176,135.04 121.258,164.464C115.912,169.517 110.01,173.745 102.96,176.747C87.527,183.318 62.597,183.527 51.367,169.001C47.779,164.359 44.045,155.918 41.827,150.489C41.005,162.494 41.871,165.553 45.876,176.807L0.086,176.883C-0.225,165.607 0.401,152.952 0.486,141.532L0.479,85.584L0.427,30.686C0.401,21.581 0.101,11.438 0.371,2.457ZM76.915,138.041C92.621,134.706 102.661,119.283 99.355,103.571C96.049,87.858 80.645,77.789 64.926,81.066C49.166,84.351 39.064,99.804 42.379,115.559C45.694,131.313 61.166,141.386 76.915,138.041Z" />
    <path d="M707.362,156.207C704.011,165.438 699.602,173.553 690.112,177.447C659.677,189.937 628.939,172.343 616.604,144.329C607.246,122.791 606.838,98.417 615.469,76.578C626.305,49.53 657.965,31.445 686.684,42.434C696.963,46.366 704.795,58.654 708.831,68.451C708.831,60.458 706.859,49.716 704.958,41.831C718.645,41.503 736.589,41.636 750.445,41.776C750.845,49.308 750.434,59.059 750.393,66.823L750.28,113.864C750.243,125.536 750.335,137.208 750.555,148.877C750.762,157.173 751.374,169.075 751.077,177.12C735.97,176.932 720.334,177.706 705.538,177.458C706.514,171.137 708.253,162.286 708.867,156.207C709.165,153.279 709.361,151.509 709.491,148.495C708.716,151.047 708.006,153.619 707.362,156.207ZM683.458,138.32C699.406,136.183 710.585,121.498 708.399,105.557C706.213,89.616 691.494,78.483 675.56,80.718C659.695,82.944 648.621,97.584 650.797,113.456C652.974,129.327 667.58,140.447 683.458,138.32Z" />
    <path d="M399.087,37.934C402.469,37.681 407.975,37.887 411.358,38.344C429.164,40.751 443.971,50.489 454.816,64.547C465.125,77.91 469,90.722 470.105,107.435C470.382,111.633 470.717,116.234 470.189,120.368C463.519,120.923 449.977,120.466 442.855,120.446L401.557,120.665C392.02,120.672 381.649,120.297 372.209,120.792C372.35,121.268 372.492,121.744 372.633,122.22C374.48,128.677 378.431,134.333 383.859,138.29C389.736,142.6 398.3,144.646 405.476,143.239C416.561,141.066 419.652,136.69 425.495,128.42C437.43,128.435 449.387,129.211 461.329,128.943C463.425,128.896 466.549,128.647 468.527,129.042L468.406,130.319C453.494,178.465 396.421,198.198 357.225,164.586C342.724,151.977 333.827,134.123 332.493,114.953C329.698,74.725 358.536,40.592 399.087,37.934ZM374.289,93.256C383.951,93.511 393.987,93.39 403.678,93.401L427.041,93.493C421.911,82.071 411.299,73.803 398.334,74.847C389.421,76.699 382.177,79.943 376.995,87.937C375.898,89.604 374.99,91.388 374.289,93.256Z" />
    <path d="M285.769,41.802C299.926,41.607 315.34,42.091 329.788,42.03C329.816,47.9 329.378,54.307 329.296,60.288L328.951,113.92L329.794,176.707C314.596,176.595 299.397,176.733 284.204,177.119C285.193,168.014 287.964,159.294 288.618,149.651C282.878,160.77 281.7,168.233 269.8,175.545C259.451,181.903 245.104,182.242 233.559,179.342C220.735,176.127 209.734,167.909 203.013,156.525C194.394,141.78 195.315,124.73 195.239,108.259L195.061,69.854C195.024,65.339 194.361,44.917 195.028,42.38L196.157,41.93C208.67,41.622 225.647,41.836 238.203,42.055C238.69,67.432 237.275,94.616 238.795,119.924C239.844,137.404 264.534,146.087 278.303,133.258C281.47,130.326 283.706,126.528 284.734,122.336C286.515,115.047 286.287,103.643 286.297,95.907C286.34,85.871 286.313,75.834 286.215,65.797C286.057,57.725 285.555,49.896 285.769,41.802Z" />
    <path d="M537.324,38.412C572.769,37.21 597.806,58.372 608.461,91.27C593.69,90.914 579.985,91.232 565.351,91.144C562.728,87.97 560.741,85.893 557.457,83.44C545.562,74.483 528.191,79.241 520.361,91.201C511.297,105.044 514.241,126.954 528.794,135.931C534.728,139.651 541.918,140.804 548.718,139.125C557.246,137.045 561.238,132.827 565.476,125.711C569.865,125.394 577.434,125.753 582.061,125.836C590.452,125.966 598.845,126.032 607.238,126.035L608.158,126.396C608.522,128.87 606.509,132.668 605.554,135.002C595.714,159.041 575.256,177.261 549.002,180.614C531.321,182.865 513.472,177.977 499.404,167.032C484.134,155.018 475.349,137.659 473.375,118.457C469.148,77.337 495.852,42.638 537.324,38.412Z" />
    <path d="M791.96,3.494C797.423,3.121 803.678,3.153 809.206,3.056C809.165,16.459 809.219,29.861 809.369,43.262C818.26,43.705 828.104,43.294 837.258,43.626L837.242,79.438C827.564,78.985 819.013,78.637 809.32,78.707C808.243,92.62 808.566,112.312 809.505,126.436C810.616,143.149 824.05,140.611 836.292,138.159C837.35,146.861 837.307,167.021 837.704,176.854C834.637,177.762 831.501,178.218 828.347,178.759C804.796,181.571 777.495,175.263 769.101,150.152C765.193,138.462 766.417,126.77 766.241,114.653C766.067,102.697 766.451,90.679 765.974,78.719L753.813,78.757L753.658,42.73C757.741,42.61 762.141,42.93 766.246,43.141C766.602,30.679 766.313,16.856 766.305,4.291C774.561,3.841 783.645,3.75 791.96,3.494Z" />
    <path d="M145.773,2.733C159.636,2.338 174.808,2.573 188.713,2.749L188.913,138.323C188.902,147.153 188.999,155.94 189.448,164.759C189.571,167.165 190.623,175.585 189.571,176.968C174.637,176.663 159.697,176.728 144.766,177.163L145.773,2.733Z" />
    <path d="M583.702,0C587.483,0.888 586.87,8.209 587.634,12.211L588.175,14.962C588.345,15.87 588.531,16.797 588.675,17.711C588.819,18.633 588.97,19.542 589.135,20.462C589.3,21.383 589.481,22.294 589.658,23.213C590.026,25.116 590.402,27.04 590.67,28.96C590.811,29.967 590.96,30.957 591.122,31.961C591.653,35.253 593.888,41.619 592.763,44.71C592.641,45.045 592.428,45.34 592.083,45.469C591.863,45.551 578.072,38.063 576.258,37.211L575.487,36.905C571.289,35.196 567.523,33.839 563.052,33.008C561.183,32.66 559.054,32.621 557.472,31.62C556.322,29.206 568.479,17.576 570.496,15.171C574.646,10.221 579.12,4.445 583.702,0Z" />
    <path d="M496.099,0.132C501.851,2.122 517.904,24.407 523.386,29.902C525.31,31.829 519.679,32.407 518.751,32.602L516.499,33.097C512.912,33.873 509.829,34.914 506.415,36.196C497.241,40.359 496.357,41.232 487.831,46.085C488.944,34.351 491.948,22.393 493.723,10.703C494.214,7.472 494.199,2.67 496.099,0.132Z" />
</svg>
