<svg width="100%" height="100%" viewBox="0 0 182 182" version="1.1" xmlns="http://www.w3.org/2000/svg" xml:space="preserve" style="fill:#006fb3;">
    <path d="M87.375,38.794C122.82,37.592 147.857,58.754 158.512,91.652C143.741,91.296 130.036,91.614 115.402,91.526C112.779,88.352 110.792,86.275 107.508,83.822C95.613,74.865 78.242,79.623 70.412,91.583C61.348,105.426 64.292,127.336 78.845,136.313C84.779,140.033 91.969,141.186 98.769,139.507C107.297,137.427 111.289,133.209 115.527,126.093C119.916,125.776 127.485,126.135 132.112,126.218C140.503,126.348 148.896,126.414 157.289,126.417L158.209,126.778C158.573,129.252 156.56,133.05 155.605,135.384C145.765,159.423 125.307,177.643 99.053,180.996C81.372,183.247 63.523,178.359 49.455,167.414C34.185,155.4 25.4,138.041 23.426,118.839C19.199,77.719 45.903,43.02 87.375,38.794Z" />
    <path d="M133.753,0.382C137.534,1.27 136.921,8.591 137.685,12.593L138.226,15.344C138.396,16.252 138.582,17.179 138.726,18.093C138.87,19.015 139.021,19.924 139.186,20.844C139.351,21.765 139.532,22.676 139.709,23.595C140.077,25.498 140.453,27.422 140.721,29.342C140.862,30.349 141.011,31.339 141.173,32.343C141.704,35.635 143.939,42.001 142.814,45.092C142.692,45.427 142.479,45.722 142.134,45.851C141.914,45.933 128.123,38.445 126.309,37.593L125.538,37.287C121.34,35.578 117.574,34.221 113.103,33.39C111.234,33.042 109.105,33.003 107.523,32.002C106.373,29.588 118.53,17.958 120.547,15.553C124.697,10.603 129.171,4.827 133.753,0.382Z" />
    <path d="M46.15,0.514C51.902,2.504 67.955,24.789 73.437,30.284C75.361,32.211 69.73,32.789 68.802,32.984L66.55,33.479C62.963,34.255 59.88,35.296 56.466,36.578C47.292,40.741 46.408,41.614 37.882,46.467C38.995,34.733 41.999,22.775 43.774,11.085C44.265,7.854 44.25,3.052 46.15,0.514Z" />
</svg>
